<svg id="Ebene_1" data-name="Ebene 1" xmlns="http://www.w3.org/2000/svg" xmlns:xlink="http://www.w3.org/1999/xlink" viewBox="0 0 178.94 225.13"><defs><style>.cls-1{fill:none;}.cls-2{clip-path:url(#clip-path);}.cls-3{fill:#b2cb08;}.cls-4{fill:#508e76;}.cls-5{fill:#fff;}</style><clipPath id="clip-path" transform="translate(-6.63 -10.9)"><rect class="cls-1" x="0.67" y="-0.67" width="190.87" height="244.25"/></clipPath></defs><title>logo_mj</title><g class="cls-2"><path class="cls-3" d="M6.63,73.88V236H185.57V73.88l-7.51-3.4L169.38,90l-8.67-5.1-18.37,20.69L133,101.1l-7.66,7.37-16.67-4.54-6.86,4L85.24,97.7l-10.36,9.07L52.2,78.7,34.62,84.94,20.45,70.2s-2,.57-13.82,3.68" transform="translate(-6.63 -10.9)"/><path class="cls-4" d="M183,40.4a23.52,23.52,0,0,0-7-1c-8.07,0-13,4.56-13,12.69S168.3,64,176,64a29.59,29.59,0,0,0,7.69-1.23V50h-9.6v3.74h5v6.2a13.14,13.14,0,0,1-3.13.34c-5.08,0-8.07-3.65-8.07-8.48s3.06-8.61,8.61-8.61a15.58,15.58,0,0,1,6.13,1.26ZM139.55,63.58h4.76V53.17h9.53V63.58h4.76V39.83h-4.76v9.59h-9.53V39.83h-4.76Zm-5.72-23.31a17.91,17.91,0,0,0-5.69-.85c-4.18,0-8.3,1.94-8.3,7.25,0,7.86,10.41,6,10.41,10.51,0,2.15-2.41,3.07-4.22,3.07a11.38,11.38,0,0,1-5.37-1.47l-.45,4.29a20.93,20.93,0,0,0,6.1.92c4.79,0,8.91-2,8.91-7.18,0-8-10.41-6.23-10.41-10.35,0-2.58,2.11-3.3,3.74-3.3a12.37,12.37,0,0,1,4.83,1ZM88.46,63.58h4.76v-11h.07l8.54,11h6.23L97.89,51l9.76-11.19H101.8L93.22,50V39.83H88.46Zm-9.87,0h4.76V39.83H78.59Zm-16.54,0H67.9l8-23.75H71.17l-6,18.65h-.07L59,39.83H53.88Zm-15.62,0h4.76V39.83H46.43Zm-26.62,0h4.94l2.07-5.44h9.64l2,5.44h5.27L34.45,39.83H29.07Zm15.32-9.19h-7l3.44-9.8h.07ZM7,63.55a13.43,13.43,0,0,0,3.64.44c4.86,0,6.5-3.54,6.5-6.06V39.83H12.39V55.65c0,1.7,0,4.19-3.09,4.19A6.12,6.12,0,0,1,7,59.43Z" transform="translate(-6.63 -10.9)"/><path class="cls-4" d="M164.15,35.06h4.56V17.3h.07l9.09,17.76h5.82V11.31h-4.56V29.07h-.07L170,11.31h-5.86Zm-28.14,0h4.93L143,29.62h9.63l2,5.44H160l-9.33-23.75h-5.38Zm15.31-9.18h-6.94l3.44-9.81h.06Zm-41.25,9.18H115l2.07-5.44h9.63l2,5.44H134l-9.32-23.75h-5.38Zm15.32-9.18h-7l3.44-9.81H122ZM88.46,35.06h4.76V24h.07l8.55,11h6.22L97.89,22.51l9.77-11.2H101.8L93.22,21.52V11.31H88.46ZM81.38,11.75a17.89,17.89,0,0,0-5.68-.85c-4.19,0-8.31,1.94-8.31,7.25,0,7.86,10.42,6,10.42,10.52,0,2.14-2.42,3.06-4.22,3.06a11.5,11.5,0,0,1-5.38-1.46l-.44,4.28a20.81,20.81,0,0,0,6.09.92c4.8,0,8.92-2,8.92-7.18,0-8-10.42-6.23-10.42-10.34,0-2.59,2.11-3.31,3.75-3.31a12.45,12.45,0,0,1,4.83,1ZM42.07,26.49c0,6.36,3.61,9,9.7,9s9.7-2.62,9.7-9V11.31H56.71V25c0,4.05-1.3,6.71-4.94,6.71S46.84,29.07,46.84,25V11.31H42.07ZM8.75,35.06h4.56V15.53l.07-.07,6.4,19.6h4.56l6.4-19.6h.07v19.6h4.56V11.31H27.74l-5.65,18H22l-5.65-18H8.75Z" transform="translate(-6.63 -10.9)"/></g><polygon class="cls-5" points="90.04 163.94 90.04 216.32 134.63 213.67 134.63 163.94 90.04 163.94"/><polygon class="cls-5" points="88.82 163.94 88.82 216.32 44.23 213.67 44.23 163.94 88.82 163.94"/><polygon class="cls-5" points="135.84 163.94 135.84 213.31 154.06 202.2 154.06 163.94 135.84 163.94"/><polygon class="cls-5" points="43.01 163.94 43.01 213.31 24.8 202.2 24.8 163.94 43.01 163.94"/><rect class="cls-5" x="76.9" y="127.98" width="25.11" height="4.63"/><rect class="cls-5" x="80.13" y="119.79" width="18.66" height="7.22"/><polygon class="cls-5" points="89.46 105.37 76 118.53 102.92 118.53 89.46 105.37"/><polygon class="cls-3" points="74.08 197.72 74.08 173.95 58.97 173.84 58.97 197.09 74.08 197.72"/><polygon class="cls-3" points="104.78 197.72 104.78 173.95 119.89 173.84 119.89 197.09 104.78 197.72"/><polygon class="cls-3" points="143.33 193.73 143.33 173.35 148.86 173.08 148.9 191.79 143.33 193.73"/><polygon class="cls-3" points="35.66 193.73 35.66 173.35 30.13 173.08 30.1 191.79 35.66 193.73"/><g class="cls-2"><path class="cls-5" d="M173.39,173.23l-13.68-5.55-2.21-.44c-15.17-15.9-36.91-25.8-61.43-25.8-24.33,0-46.43,9.89-61.59,25.58l-2.36.49-13.31,5.72Z" transform="translate(-6.63 -10.9)"/></g></svg>